<svg width="79" height="11" viewBox="0 0 79 11" fill="none" xmlns="http://www.w3.org/2000/svg">
<path d="M5.016 10.144C4.368 10.144 3.764 10.04 3.204 9.832C2.652 9.616 2.172 9.312 1.764 8.92C1.356 8.528 1.036 8.068 0.804 7.54C0.58 7.012 0.468 6.432 0.468 5.8C0.468 5.168 0.58 4.588 0.804 4.06C1.036 3.532 1.356 3.072 1.764 2.68C2.18 2.288 2.664 1.988 3.216 1.78C3.768 1.564 4.372 1.456 5.028 1.456C5.756 1.456 6.412 1.584 6.996 1.84C7.588 2.088 8.084 2.456 8.484 2.944L7.236 4.096C6.948 3.768 6.628 3.524 6.276 3.364C5.924 3.196 5.54 3.112 5.124 3.112C4.732 3.112 4.372 3.176 4.044 3.304C3.716 3.432 3.432 3.616 3.192 3.856C2.952 4.096 2.764 4.38 2.628 4.708C2.5 5.036 2.436 5.4 2.436 5.8C2.436 6.2 2.5 6.564 2.628 6.892C2.764 7.22 2.952 7.504 3.192 7.744C3.432 7.984 3.716 8.168 4.044 8.296C4.372 8.424 4.732 8.488 5.124 8.488C5.54 8.488 5.924 8.408 6.276 8.248C6.628 8.08 6.948 7.828 7.236 7.492L8.484 8.644C8.084 9.132 7.588 9.504 6.996 9.76C6.412 10.016 5.752 10.144 5.016 10.144ZM9.66478 10V1.096H11.5368V10H9.66478ZM16.4782 10.096C15.7422 10.096 15.0942 9.952 14.5342 9.664C13.9822 9.376 13.5542 8.984 13.2502 8.488C12.9462 7.984 12.7942 7.412 12.7942 6.772C12.7942 6.124 12.9422 5.552 13.2382 5.056C13.5422 4.552 13.9542 4.16 14.4742 3.88C14.9942 3.592 15.5822 3.448 16.2382 3.448C16.8702 3.448 17.4382 3.584 17.9422 3.856C18.4542 4.12 18.8582 4.504 19.1542 5.008C19.4502 5.504 19.5982 6.1 19.5982 6.796C19.5982 6.868 19.5942 6.952 19.5862 7.048C19.5782 7.136 19.5702 7.22 19.5622 7.3H14.3182V6.208H18.5782L17.8582 6.532C17.8582 6.196 17.7902 5.904 17.6542 5.656C17.5182 5.408 17.3302 5.216 17.0902 5.08C16.8502 4.936 16.5702 4.864 16.2502 4.864C15.9302 4.864 15.6462 4.936 15.3982 5.08C15.1582 5.216 14.9702 5.412 14.8342 5.668C14.6982 5.916 14.6302 6.212 14.6302 6.556V6.844C14.6302 7.196 14.7062 7.508 14.8582 7.78C15.0182 8.044 15.2382 8.248 15.5182 8.392C15.8062 8.528 16.1422 8.596 16.5262 8.596C16.8702 8.596 17.1702 8.544 17.4262 8.44C17.6902 8.336 17.9302 8.18 18.1462 7.972L19.1422 9.052C18.8462 9.388 18.4742 9.648 18.0262 9.832C17.5782 10.008 17.0622 10.096 16.4782 10.096ZM24.6287 10V8.74L24.5087 8.464V6.208C24.5087 5.808 24.3847 5.496 24.1367 5.272C23.8967 5.048 23.5247 4.936 23.0207 4.936C22.6767 4.936 22.3367 4.992 22.0007 5.104C21.6727 5.208 21.3927 5.352 21.1607 5.536L20.4887 4.228C20.8407 3.98 21.2647 3.788 21.7607 3.652C22.2567 3.516 22.7607 3.448 23.2727 3.448C24.2567 3.448 25.0207 3.68 25.5647 4.144C26.1087 4.608 26.3807 5.332 26.3807 6.316V10H24.6287ZM22.6607 10.096C22.1567 10.096 21.7247 10.012 21.3647 9.844C21.0047 9.668 20.7287 9.432 20.5367 9.136C20.3447 8.84 20.2487 8.508 20.2487 8.14C20.2487 7.756 20.3407 7.42 20.5247 7.132C20.7167 6.844 21.0167 6.62 21.4247 6.46C21.8327 6.292 22.3647 6.208 23.0207 6.208H24.7367V7.3H23.2247C22.7847 7.3 22.4807 7.372 22.3127 7.516C22.1527 7.66 22.0727 7.84 22.0727 8.056C22.0727 8.296 22.1647 8.488 22.3487 8.632C22.5407 8.768 22.8007 8.836 23.1287 8.836C23.4407 8.836 23.7207 8.764 23.9687 8.62C24.2167 8.468 24.3967 8.248 24.5087 7.96L24.7967 8.824C24.6607 9.24 24.4127 9.556 24.0527 9.772C23.6927 9.988 23.2287 10.096 22.6607 10.096ZM28.0749 10V3.544H29.8629V5.368L29.6109 4.84C29.8029 4.384 30.1109 4.04 30.5349 3.808C30.9589 3.568 31.4749 3.448 32.0829 3.448V5.176C32.0029 5.168 31.9309 5.164 31.8669 5.164C31.8029 5.156 31.7349 5.152 31.6629 5.152C31.1509 5.152 30.7349 5.3 30.4149 5.596C30.1029 5.884 29.9469 6.336 29.9469 6.952V10H28.0749Z" fill="black"/>
<path d="M33.3046 10V1.6H34.9126L38.4886 7.528H37.6366L41.1526 1.6H42.7486L42.7726 10H40.9486L40.9366 4.396H41.2726L38.4646 9.112H37.5886L34.7206 4.396H35.1286V10H33.3046ZM47.8375 10.096C47.1015 10.096 46.4535 9.952 45.8935 9.664C45.3415 9.376 44.9135 8.984 44.6095 8.488C44.3055 7.984 44.1535 7.412 44.1535 6.772C44.1535 6.124 44.3015 5.552 44.5975 5.056C44.9015 4.552 45.3135 4.16 45.8335 3.88C46.3535 3.592 46.9415 3.448 47.5975 3.448C48.2295 3.448 48.7975 3.584 49.3015 3.856C49.8135 4.12 50.2175 4.504 50.5135 5.008C50.8095 5.504 50.9575 6.1 50.9575 6.796C50.9575 6.868 50.9535 6.952 50.9455 7.048C50.9375 7.136 50.9295 7.22 50.9215 7.3H45.6775V6.208H49.9375L49.2175 6.532C49.2175 6.196 49.1495 5.904 49.0135 5.656C48.8775 5.408 48.6895 5.216 48.4495 5.08C48.2095 4.936 47.9295 4.864 47.6095 4.864C47.2895 4.864 47.0055 4.936 46.7575 5.08C46.5175 5.216 46.3295 5.412 46.1935 5.668C46.0575 5.916 45.9895 6.212 45.9895 6.556V6.844C45.9895 7.196 46.0655 7.508 46.2175 7.78C46.3775 8.044 46.5975 8.248 46.8775 8.392C47.1655 8.528 47.5015 8.596 47.8855 8.596C48.2295 8.596 48.5295 8.544 48.7855 8.44C49.0495 8.336 49.2895 8.18 49.5055 7.972L50.5015 9.052C50.2055 9.388 49.8335 9.648 49.3855 9.832C48.9375 10.008 48.4215 10.096 47.8375 10.096ZM54.8438 10.096C54.0838 10.096 53.4918 9.904 53.0678 9.52C52.6438 9.128 52.4318 8.548 52.4318 7.78V2.116H54.3038V7.756C54.3038 8.028 54.3758 8.24 54.5198 8.392C54.6638 8.536 54.8598 8.608 55.1078 8.608C55.4038 8.608 55.6558 8.528 55.8638 8.368L56.3678 9.688C56.1758 9.824 55.9438 9.928 55.6718 10C55.4078 10.064 55.1318 10.096 54.8438 10.096ZM51.4358 5.128V3.688H55.9118V5.128H51.4358ZM57.4187 10V3.544H59.2067V5.368L58.9547 4.84C59.1467 4.384 59.4547 4.04 59.8787 3.808C60.3027 3.568 60.8187 3.448 61.4267 3.448V5.176C61.3467 5.168 61.2747 5.164 61.2107 5.164C61.1467 5.156 61.0787 5.152 61.0067 5.152C60.4947 5.152 60.0787 5.3 59.7587 5.596C59.4467 5.884 59.2907 6.336 59.2907 6.952V10H57.4187ZM62.5515 10V3.544H64.4235V10H62.5515ZM63.4875 2.644C63.1435 2.644 62.8635 2.544 62.6475 2.344C62.4315 2.144 62.3235 1.896 62.3235 1.6C62.3235 1.304 62.4315 1.056 62.6475 0.856C62.8635 0.655999 63.1435 0.555999 63.4875 0.555999C63.8315 0.555999 64.1115 0.651999 64.3275 0.844C64.5435 1.028 64.6515 1.268 64.6515 1.564C64.6515 1.876 64.5435 2.136 64.3275 2.344C64.1195 2.544 63.8395 2.644 63.4875 2.644ZM69.2809 10.096C68.5849 10.096 67.9649 9.956 67.4209 9.676C66.8769 9.388 66.4489 8.992 66.1369 8.488C65.8329 7.984 65.6809 7.412 65.6809 6.772C65.6809 6.124 65.8329 5.552 66.1369 5.056C66.4489 4.552 66.8769 4.16 67.4209 3.88C67.9649 3.592 68.5849 3.448 69.2809 3.448C69.9609 3.448 70.5529 3.592 71.0569 3.88C71.5609 4.16 71.9329 4.564 72.1729 5.092L70.7209 5.872C70.5529 5.568 70.3409 5.344 70.0849 5.2C69.8369 5.056 69.5649 4.984 69.2689 4.984C68.9489 4.984 68.6609 5.056 68.4049 5.2C68.1489 5.344 67.9449 5.548 67.7929 5.812C67.6489 6.076 67.5769 6.396 67.5769 6.772C67.5769 7.148 67.6489 7.468 67.7929 7.732C67.9449 7.996 68.1489 8.2 68.4049 8.344C68.6609 8.488 68.9489 8.56 69.2689 8.56C69.5649 8.56 69.8369 8.492 70.0849 8.356C70.3409 8.212 70.5529 7.984 70.7209 7.672L72.1729 8.464C71.9329 8.984 71.5609 9.388 71.0569 9.676C70.5529 9.956 69.9609 10.096 69.2809 10.096ZM75.4227 10.096C74.8707 10.096 74.3387 10.032 73.8267 9.904C73.3227 9.768 72.9227 9.6 72.6267 9.4L73.2507 8.056C73.5467 8.24 73.8947 8.392 74.2947 8.512C74.7027 8.624 75.1027 8.68 75.4947 8.68C75.9267 8.68 76.2307 8.628 76.4067 8.524C76.5907 8.42 76.6827 8.276 76.6827 8.092C76.6827 7.94 76.6107 7.828 76.4667 7.756C76.3307 7.676 76.1467 7.616 75.9147 7.576C75.6827 7.536 75.4267 7.496 75.1467 7.456C74.8747 7.416 74.5987 7.364 74.3187 7.3C74.0387 7.228 73.7827 7.124 73.5507 6.988C73.3187 6.852 73.1307 6.668 72.9867 6.436C72.8507 6.204 72.7827 5.904 72.7827 5.536C72.7827 5.128 72.8987 4.768 73.1307 4.456C73.3707 4.144 73.7147 3.9 74.1627 3.724C74.6107 3.54 75.1467 3.448 75.7707 3.448C76.2107 3.448 76.6587 3.496 77.1147 3.592C77.5707 3.688 77.9507 3.828 78.2547 4.012L77.6307 5.344C77.3187 5.16 77.0027 5.036 76.6827 4.972C76.3707 4.9 76.0667 4.864 75.7707 4.864C75.3547 4.864 75.0507 4.92 74.8587 5.032C74.6667 5.144 74.5707 5.288 74.5707 5.464C74.5707 5.624 74.6387 5.744 74.7747 5.824C74.9187 5.904 75.1067 5.968 75.3387 6.016C75.5707 6.064 75.8227 6.108 76.0947 6.148C76.3747 6.18 76.6547 6.232 76.9347 6.304C77.2147 6.376 77.4667 6.48 77.6907 6.616C77.9227 6.744 78.1107 6.924 78.2547 7.156C78.3987 7.38 78.4707 7.676 78.4707 8.044C78.4707 8.444 78.3507 8.8 78.1107 9.112C77.8707 9.416 77.5227 9.656 77.0667 9.832C76.6187 10.008 76.0707 10.096 75.4227 10.096Z" fill="#2963F9"/>
</svg>
